<svg width="531" height="361" viewBox="0 0 531 361" fill="none" xmlns="http://www.w3.org/2000/svg">
<path opacity="0.1" d="M18.1028 344.236V351.487L3.61914 349.89V344.236H18.1028Z" fill="white"/>
<path d="M29.8066 245.345L113.278 231.665V311.256L33.9694 307.074L29.8066 245.345Z" fill="#6C227E"/>
<path opacity="0.05" d="M29.8066 245.345L113.278 231.665V311.256L33.9694 307.074L29.8066 245.345Z" fill="black"/>
<path d="M113.281 231.665L212.652 239.209L207.153 308.472L113.281 311.256V231.665Z" fill="#6C227E"/>
<path opacity="0.1" d="M113.281 231.665L212.652 239.209L207.153 308.472L113.281 311.256V231.665Z" fill="black"/>
<path d="M143.743 207.787L113.281 232.079L212.36 239.623L228.551 214.763L143.743 207.787Z" fill="#6C227E"/>
<path d="M0 219.011L74.8738 209.778L113.283 231.887L30.1137 245.594L0 219.011Z" fill="#6C227E"/>
<path d="M131.165 252.556V361L92.2217 356.974L75.2818 355.233L70.1211 354.689L53.192 352.938L29.8066 350.522V245.593L112.93 251.294L131.165 252.556Z" fill="#6C227E"/>
<path d="M212.651 239.624V345.253L181.433 351.285L166.25 354.219L131.167 361V252.686L212.651 239.624Z" fill="#6C227E"/>
<path opacity="0.05" d="M212.651 239.624V345.253L181.433 351.285L166.25 354.219L131.167 361V252.686L212.651 239.624Z" fill="black"/>
<path d="M0 268.097L30.0346 245.593L131.17 252.458L116.282 277.429L0 268.097Z" fill="#6C227E"/>
<path opacity="0.1" d="M0 268.097L30.0346 245.593L131.17 252.458L116.282 277.429L0 268.097Z" fill="white"/>
<path d="M212.278 239.624L131.167 252.981L157.566 277.429L244.449 262.36L212.278 239.624Z" fill="#6C227E"/>
<path opacity="0.1" d="M212.278 239.624L131.167 252.981L157.566 277.429L244.449 262.36L212.278 239.624Z" fill="white"/>
<path opacity="0.1" d="M180.855 350.142L166.943 353.041V338.698L179.974 335.133L180.855 350.142Z" fill="white"/>
<path opacity="0.1" d="M198.74 348.152L184.828 351.051V328.749L197.859 325.184L198.74 348.152Z" fill="white"/>
<path fill-rule="evenodd" clip-rule="evenodd" d="M63.0134 300.75C61.297 305.674 55.9785 309.262 49.6834 309.262C46.9187 309.262 44.3423 308.57 42.1768 307.376C43.5085 311.916 47.7006 315.231 52.6659 315.231C58.7029 315.231 63.5967 310.331 63.5967 304.287C63.5967 303.049 63.3916 301.86 63.0134 300.75Z" fill="#F1F2F3"/>
<mask id="mask0_4734_2735" style="mask-type:alpha" maskUnits="userSpaceOnUse" x="42" y="300" width="22" height="16">
<path fill-rule="evenodd" clip-rule="evenodd" d="M63.0134 300.75C61.297 305.674 55.9785 309.262 49.6834 309.262C46.9187 309.262 44.3423 308.57 42.1768 307.376C43.5085 311.916 47.7006 315.231 52.6659 315.231C58.7029 315.231 63.5967 310.331 63.5967 304.287C63.5967 303.049 63.3916 301.86 63.0134 300.75Z" fill="white"/>
</mask>
<g mask="url(#mask0_4734_2735)">
<ellipse cx="55.6438" cy="313.244" rx="3.97483" ry="3.97955" fill="#1D1F22"/>
<path d="M43.1545 313.005L42.8905 313.005L49.5214 315.833C50.1417 316.098 50.8046 316.234 51.4706 316.234L56.1898 316.234C58.0876 316.234 59.7886 315.133 60.5707 313.399L61.2536 311.884L61.2536 311.505C61.2536 311.324 61.1205 311.168 60.9436 311.141C59.8558 310.977 58.7525 311.073 57.7215 311.42L56.7663 311.742L52.8386 312.725C52.1029 312.909 51.3306 312.918 50.5816 312.749L48.2981 312.234C47.2869 312.007 46.2397 312.102 45.302 312.508L45.0667 312.61C44.4652 312.871 43.815 313.005 43.1545 313.005Z" fill="#4D9AF5"/>
</g>
<path fill-rule="evenodd" clip-rule="evenodd" d="M90.6763 302.559C91.902 307.693 96.9477 311.804 103.296 312.335C105.96 312.559 108.502 312.122 110.708 311.182C109.234 315.481 105.161 318.57 100.367 318.57C94.3303 318.57 89.4364 313.67 89.4364 307.626C89.4364 305.798 89.8843 304.074 90.6763 302.559Z" fill="#F1F2F3"/>
<mask id="mask1_4734_2735" style="mask-type:alpha" maskUnits="userSpaceOnUse" x="89" y="301" width="23" height="18">
<path fill-rule="evenodd" clip-rule="evenodd" d="M91.4364 301.304C91.7712 307.598 96.9743 312.598 103.344 312.598C106.3 312.598 109.005 311.521 111.089 309.737C110.105 314.77 105.677 318.567 100.362 318.567C94.3248 318.567 89.4309 313.668 89.4309 307.624C89.4309 305.27 90.1733 303.089 91.4364 301.304Z" fill="white"/>
</mask>
<g mask="url(#mask1_4734_2735)">
<ellipse rx="3.97484" ry="3.97955" transform="matrix(-1 0 0 1 97.384 316.577)" fill="#1D1F22"/>
<path d="M105.641 316.575L107.229 316.64C109.345 316.726 111.015 318.466 111.015 320.583H99.9891C99.0988 320.583 98.2246 320.345 97.4568 319.894L88.3078 314.521C88.3078 312.72 90.2532 311.592 91.8159 312.486L95.9847 314.871C96.7407 315.304 97.5966 315.531 98.4676 315.531H101.26C101.871 315.531 102.477 315.643 103.048 315.862L104.057 316.248C104.564 316.442 105.099 316.553 105.641 316.575Z" fill="#4D9AF5"/>
</g>
<path fill-rule="evenodd" clip-rule="evenodd" d="M57.6283 332.303C61.273 326.998 67.3114 323.677 73.9635 324.028C80.607 324.379 86.2578 328.308 89.3287 333.956C87.3025 327.366 81.3434 322.425 74.0653 322.041C66.7794 321.656 60.3291 325.952 57.6283 332.303Z" fill="#F1F2F3"/>
<path fill-rule="evenodd" clip-rule="evenodd" d="M91.7108 334.515C91.118 333.944 90.2745 333.685 89.4517 333.906C88.6473 334.122 88.0543 334.744 87.8149 335.512C87.906 334.655 88.5115 333.901 89.3931 333.665C90.2918 333.424 91.21 333.791 91.7108 334.515Z" fill="#F1F2F3"/>
<path fill-rule="evenodd" clip-rule="evenodd" d="M59.1337 334.403C59.1173 333.58 58.7033 332.801 57.9662 332.375C57.2398 331.955 56.3739 331.979 55.6599 332.36C56.3301 331.807 57.299 331.698 58.0957 332.158C58.9023 332.624 59.292 333.536 59.1337 334.403Z" fill="#F1F2F3"/>
<path d="M290.038 98.5669L290.043 98.5709C290.049 98.5843 290.05 98.5937 290.056 98.6071C290.11 98.7517 290.203 98.867 290.317 98.9556C290.405 99.0241 290.515 99.0753 290.632 99.1064C292.959 99.6592 295.411 99.6758 297.85 99.219C297.869 99.2164 297.879 99.2245 297.893 99.2178C297.911 99.2152 297.929 99.2032 297.948 99.2006C302.726 98.2866 307.447 95.5544 311.064 91.3704C316.647 84.9223 315.531 79.9575 313.17 73.7746L317.341 68.9515C317.657 68.5886 317.626 68.0508 317.275 67.7434C316.898 67.4065 316.39 67.4826 316.075 67.8455L311.904 72.6686C305.485 71.174 300.433 70.7521 294.846 77.2056C289.354 83.5363 287.469 91.9137 290.038 98.5665L290.038 98.5669ZM290.639 92.2483L294.944 92.2425L291.217 96.5466C290.835 95.169 290.644 93.7265 290.638 92.2483L290.639 92.2483ZM291.842 85.474L300.817 85.4635L296.436 90.5254L290.683 90.535C290.844 88.8527 291.23 87.1483 291.842 85.474L291.842 85.474ZM295.796 78.7079L306.677 78.691L302.3 83.7476L292.592 83.7613C293.421 81.9994 294.483 80.2904 295.796 78.7079L295.796 78.7079ZM304.897 94.5106L303.566 84.8541L307.948 79.7922L309.445 90.6236C308.065 92.1538 306.527 93.4493 304.897 94.5106L304.897 94.5106ZM298.489 97.3512L297.697 91.6278L302.078 86.5658L303.311 95.4944C301.751 96.3365 300.126 96.9643 298.489 97.3514L298.489 97.3512ZM292.484 97.6529L296.214 93.3435L296.807 97.6351C295.348 97.8354 293.9 97.8391 292.484 97.653L292.484 97.6529ZM310.915 88.8389L309.43 78.077L311.883 75.2405C313.693 80.1551 314.376 84.063 310.915 88.8389L310.915 88.8389ZM310.618 74.1438L308.165 76.9803L297.35 76.9975C301.594 72.8823 305.536 73.0224 310.618 74.1439L310.618 74.1438Z" fill="#6C227E"/>
<path d="M295.766 143.317L295.762 143.322C295.748 143.327 295.739 143.328 295.725 143.333C295.578 143.378 295.458 143.465 295.363 143.574C295.29 143.658 295.232 143.764 295.195 143.879C294.511 146.174 294.355 148.625 294.671 151.088C294.673 151.107 294.664 151.117 294.67 151.131C294.672 151.15 294.682 151.168 294.684 151.187C295.323 156.015 297.779 160.89 301.745 164.743C307.857 170.691 312.871 169.859 319.172 167.851L323.744 172.295C324.087 172.631 324.626 172.631 324.952 172.298C325.309 171.94 325.263 171.428 324.919 171.093L320.347 166.649C322.203 160.318 322.911 155.292 316.794 149.339C310.794 143.489 302.547 141.128 295.767 143.317L295.766 143.317ZM302.033 144.277L301.794 148.581L297.714 144.611C299.109 144.307 300.559 144.198 302.033 144.277L302.033 144.277ZM308.72 145.866L308.219 154.838L303.421 150.17L303.739 144.419C305.407 144.676 307.085 145.159 308.72 145.866L308.72 145.866ZM315.242 150.203L314.639 161.081L309.846 156.417L310.385 146.713C312.095 147.642 313.738 148.801 315.242 150.203L315.242 150.203ZM298.965 158.4L308.67 157.62L313.468 162.288L302.582 163.168C301.135 161.701 299.93 160.09 298.965 158.401L298.965 158.4ZM296.497 151.833L302.25 151.368L307.048 156.036L298.074 156.759C297.323 155.152 296.79 153.492 296.497 151.833L296.497 151.833ZM296.539 145.814L300.623 149.788L296.31 150.136C296.193 148.666 296.272 147.219 296.538 145.814L296.539 145.814ZM304.278 164.738L315.094 163.867L317.783 166.481C312.779 168.01 308.843 168.471 304.278 164.738L304.278 164.738ZM318.949 165.279L316.26 162.665L316.859 151.854C320.721 156.33 320.357 160.263 318.949 165.279L318.949 165.279Z" fill="#6C227E"/>
<path d="M377.592 107.591L377.591 107.598C377.583 107.61 377.575 107.615 377.567 107.628C377.47 107.748 377.419 107.887 377.401 108.03C377.387 108.141 377.399 108.261 377.432 108.378C378.146 110.663 379.384 112.783 381.022 114.649C381.034 114.664 381.032 114.677 381.045 114.685C381.056 114.7 381.076 114.709 381.087 114.723C384.313 118.37 389.07 121.039 394.51 122.015C402.898 123.528 406.592 120.032 410.696 114.842L416.968 115.969C417.44 116.055 417.887 115.754 417.972 115.296C418.068 114.799 417.744 114.401 417.271 114.315L410.999 113.187C409.005 106.899 406.787 102.335 398.392 100.821C390.15 99.3267 381.994 101.982 377.593 107.591L377.592 107.591ZM383.325 104.881L385.529 108.584L379.929 107.575C380.917 106.542 382.058 105.641 383.325 104.881L383.325 104.881ZM389.757 102.458L394.349 110.178L387.765 108.992L384.819 104.045C386.346 103.324 388.007 102.786 389.757 102.458L389.757 102.458ZM397.587 102.406L403.158 111.763L396.58 110.578L391.611 102.228C393.547 102.042 395.557 102.084 397.587 102.406L397.587 102.406ZM388.664 118.31L396.277 112.233L402.861 113.42L394.324 120.24C392.306 119.834 390.408 119.171 388.664 118.31L388.664 118.31ZM382.952 114.245L387.462 110.64L394.047 111.827L387.009 117.447C385.49 116.535 384.12 115.457 382.952 114.245L382.952 114.245ZM379.626 109.23L385.232 110.24L381.849 112.942C380.932 111.788 380.19 110.544 379.626 109.23L379.626 109.23ZM396.608 120.593L405.091 113.819L408.78 114.482C405.484 118.551 402.477 121.134 396.608 120.593L396.608 120.593ZM409.075 112.833L405.387 112.17L399.849 102.87C405.55 104.421 407.443 107.887 409.075 112.833L409.075 112.833Z" fill="#6C227E"/>
<path opacity="0.3" d="M213.063 129.491C213.049 129.498 213.029 129.503 213.018 129.511C213.014 129.515 213.011 129.513 213.007 129.517C213.002 129.521 213.001 129.524 212.998 129.524C212.988 129.535 212.978 129.546 212.965 129.557C212.953 129.57 212.937 129.582 212.928 129.598C212.923 129.607 212.919 129.613 212.913 129.62C212.911 129.623 212.906 129.624 212.907 129.627C212.065 131.184 211.585 132.919 211.441 134.723C211.439 134.734 211.433 134.744 211.434 134.754C211.432 134.767 211.436 134.782 211.437 134.797C211.172 138.342 212.224 142.144 214.524 145.406C217.709 149.918 222.183 151.823 227.823 151.079L230.637 155.072C230.738 155.216 230.943 155.252 231.09 155.15C231.205 155.07 231.252 154.93 231.218 154.804C231.208 154.768 231.192 154.736 231.17 154.703L228.354 150.713C230.117 147.367 230.586 144.101 229.744 140.954C229.327 139.397 228.592 137.87 227.539 136.377C224.049 131.43 218.4 128.718 213.148 129.466C213.143 129.467 213.142 129.47 213.136 129.469L213.111 129.476C213.095 129.475 213.079 129.484 213.063 129.491L213.063 129.491ZM218.03 130.382L216.92 134.499L213.777 130.043C215.189 129.909 216.626 130.025 218.03 130.382L218.03 130.382ZM213.244 130.415L216.388 134.871L212.109 134.495C212.252 133.06 212.634 131.684 213.244 130.415L213.244 130.415ZM212.062 135.136L216.872 135.56L220.184 140.253L212.522 139.581C212.14 138.095 211.986 136.595 212.062 135.136L212.062 135.136ZM226.819 136.713L224.514 145.266L221.202 140.573L223.268 132.908C224.618 133.91 225.847 135.148 226.886 136.588C226.858 136.622 226.832 136.663 226.819 136.713L226.819 136.713ZM215.092 144.853C215.043 144.848 214.996 144.858 214.951 144.876C213.943 143.412 213.191 141.843 212.706 140.244L220.67 140.944L223.982 145.638L215.092 144.853ZM215.426 145.528L224.465 146.322L227.4 150.48C222.328 151.063 218.399 149.436 215.426 145.528L215.426 145.528ZM227.936 150.113L225.003 145.952L227.348 137.253C230.029 141.361 230.227 145.58 227.936 150.113L227.936 150.113ZM222.706 132.51C222.704 132.511 222.704 132.511 222.704 132.513L220.717 139.884L217.404 135.188L218.654 130.56C220.061 130.988 221.43 131.646 222.706 132.51L222.706 132.51Z" fill="#6C227E"/>
<path opacity="0.3" d="M276.807 241.013C276.802 241.027 276.793 241.045 276.792 241.059C276.792 241.065 276.788 241.066 276.788 241.072C276.788 241.077 276.789 241.081 276.788 241.083C276.789 241.098 276.79 241.112 276.79 241.129C276.792 241.148 276.79 241.167 276.795 241.184C276.799 241.194 276.801 241.201 276.802 241.21C276.803 241.214 276.801 241.218 276.803 241.219C277.392 242.888 278.356 244.409 279.597 245.725C279.603 245.734 279.606 245.745 279.614 245.752C279.623 245.762 279.636 245.769 279.649 245.778C282.098 248.351 285.62 250.119 289.58 250.598C295.059 251.258 299.47 249.211 302.701 244.524L307.546 245.11C307.721 245.132 307.885 245.004 307.908 244.827C307.926 244.687 307.853 244.559 307.737 244.499C307.704 244.482 307.669 244.473 307.63 244.467L302.785 243.884C301.488 240.33 299.382 237.792 296.486 236.308C295.052 235.573 293.428 235.096 291.616 234.876C285.609 234.152 279.812 236.53 276.845 240.932C276.843 240.937 276.844 240.94 276.839 240.943L276.828 240.966C276.816 240.977 276.813 240.996 276.807 241.013L276.807 241.013ZM280.797 237.921L283.104 241.505L277.695 240.853C278.542 239.714 279.592 238.724 280.797 237.921L280.797 237.921ZM277.613 241.497L283.022 242.15L279.875 245.076C278.908 244.008 278.144 242.802 277.613 241.497L277.613 241.497ZM280.319 245.541L283.858 242.252L289.557 242.938L283.921 248.179C282.564 247.467 281.349 246.575 280.319 245.541L280.319 245.541ZM291.382 235.637L296.175 243.084L290.476 242.397L286.181 235.723C287.829 235.392 289.571 235.309 291.334 235.504C291.34 235.547 291.353 235.593 291.382 235.637L291.382 235.637ZM289.551 249.805C289.515 249.838 289.491 249.88 289.473 249.925C287.713 249.693 286.046 249.199 284.536 248.488L290.394 243.042L296.093 243.728L289.551 249.805ZM290.275 250.01L296.924 243.828L301.973 244.436C299.004 248.595 295.165 250.422 290.275 250.01L290.275 250.01ZM302.06 243.792L297.01 243.18L292.136 235.606C296.979 236.369 300.237 239.051 302.06 243.792L302.06 243.792ZM285.509 235.874C285.508 235.876 285.508 235.876 285.51 235.877L289.64 242.295L283.939 241.607L281.347 237.576C282.608 236.818 284.013 236.242 285.509 235.874L285.509 235.874Z" fill="#6C227E"/>
<path opacity="0.3" d="M503.758 273.701C503.768 273.712 503.778 273.73 503.789 273.738C503.794 273.741 503.793 273.745 503.797 273.748C503.802 273.751 503.806 273.752 503.807 273.754C503.82 273.761 503.833 273.768 503.847 273.778C503.864 273.786 503.879 273.797 503.896 273.802C503.907 273.804 503.914 273.806 503.922 273.81C503.925 273.811 503.928 273.816 503.93 273.814C505.655 274.204 507.454 274.197 509.227 273.847C509.239 273.846 509.249 273.849 509.259 273.846C509.272 273.844 509.285 273.836 509.3 273.831C512.779 273.126 516.15 271.083 518.664 267.983C522.14 263.692 522.759 258.864 520.517 253.63L523.594 249.836C523.705 249.699 523.685 249.492 523.547 249.379C523.439 249.289 523.291 249.282 523.179 249.349C523.147 249.368 523.121 249.392 523.095 249.423L520.021 253.217C516.327 252.423 513.059 252.856 510.262 254.52C508.877 255.344 507.609 256.465 506.458 257.884C502.646 262.588 501.569 268.767 503.71 273.625C503.713 273.63 503.716 273.631 503.716 273.636L503.729 273.658C503.733 273.674 503.746 273.687 503.758 273.701L503.758 273.701ZM503.269 268.673L507.528 268.627L504.095 272.863C503.584 271.539 503.306 270.122 503.269 268.673L503.269 268.673ZM504.597 273.276L508.029 269.04L508.827 273.265C507.409 273.516 505.982 273.521 504.597 273.276L504.597 273.276ZM509.456 273.136L508.561 268.386L512.176 263.923L513.605 271.489C512.28 272.26 510.879 272.815 509.457 273.137L509.456 273.136ZM506.976 258.487L515.824 258.392L512.208 262.855L504.279 262.94C504.877 261.367 505.735 259.847 506.838 258.457C506.878 258.475 506.924 258.489 506.976 258.487L506.976 258.487ZM517.979 267.585C517.987 267.633 518.009 267.676 518.038 267.715C516.904 269.083 515.599 270.232 514.193 271.133L512.71 263.268L516.326 258.805L517.979 267.585ZM518.537 267.081L516.852 258.154L520.056 254.2C521.99 258.93 521.49 263.157 518.537 267.081L518.537 267.081ZM519.557 253.783L516.351 257.736L507.352 257.832C510.576 254.134 514.579 252.802 519.558 253.782L519.557 253.783ZM504.049 263.59C504.05 263.592 504.05 263.592 504.052 263.59L511.677 263.509L508.059 267.974L503.271 268.023C503.302 266.551 503.563 265.054 504.048 263.59L504.049 263.59Z" fill="#6C227E"/>
<path opacity="0.3" d="M303.258 9.70459C303.249 9.71755 303.236 9.73256 303.231 9.74533C303.229 9.75078 303.226 9.75096 303.224 9.75641C303.222 9.76186 303.222 9.76543 303.221 9.76731C303.218 9.78179 303.215 9.79626 303.21 9.81261C303.207 9.83065 303.2 9.84888 303.201 9.86675C303.202 9.87747 303.202 9.88462 303.2 9.89365C303.2 9.89722 303.197 9.90097 303.199 9.90267C303.324 11.6686 303.849 13.3913 304.695 14.9905C304.699 15.001 304.699 15.0118 304.705 15.0204C304.711 15.0327 304.722 15.0429 304.731 15.0549C306.408 18.1879 309.334 20.8302 313.024 22.3466C318.13 24.4416 322.926 23.6434 327.286 19.9848L331.801 21.8408C331.964 21.9078 332.156 21.8284 332.225 21.6638C332.279 21.534 332.244 21.3908 332.148 21.3025C332.12 21.2771 332.089 21.2589 332.052 21.2428L327.538 19.3904C327.231 15.6197 325.875 12.6121 323.477 10.4101C322.291 9.32018 320.852 8.42726 319.163 7.73306C313.566 5.43535 307.345 6.18373 303.316 9.6372C303.313 9.64095 303.313 9.64452 303.307 9.64658L303.29 9.66534C303.276 9.6732 303.268 9.68973 303.258 9.70456L303.258 9.70459ZM307.925 7.78657L309.197 11.8563L304.156 9.78673C305.275 8.91447 306.55 8.24024 307.926 7.78657L307.925 7.78657ZM303.906 10.3864L308.947 12.456L305.136 14.4386C304.487 13.1517 304.071 11.7852 303.906 10.3864L303.906 10.3864ZM305.44 15.0051L309.725 12.7769L315.036 14.9564L308.212 18.5077C307.093 17.4592 306.158 16.2761 305.44 15.0053L305.44 15.0051ZM318.736 8.40374L321.378 16.8588L316.067 14.6792L313.699 7.10176C315.376 7.22193 317.077 7.60584 318.725 8.26276C318.72 8.306 318.72 8.35434 318.736 8.40365L318.736 8.40374ZM313.207 21.5746C313.163 21.5965 313.129 21.6304 313.1 21.6695C311.464 20.9762 309.989 20.0565 308.722 18.9688L315.816 15.2789L321.128 17.4585L313.207 21.5746ZM313.85 21.9649L321.902 17.7758L326.608 19.7064C322.641 22.9248 318.454 23.6639 313.85 21.9647L313.85 21.9649ZM326.863 19.1087L322.157 17.1745L319.471 8.57489C323.937 10.5998 326.365 14.0533 326.863 19.1089L326.863 19.1087ZM313.012 7.06841C313.01 7.07029 313.01 7.07029 313.012 7.07198L315.288 14.3582L309.975 12.177L308.548 7.60128C309.965 7.20634 311.472 7.02536 313.012 7.06824L313.012 7.06841Z" fill="#6C227E"/>
<path opacity="0.3" d="M137.514 168.157C137.52 168.171 137.525 168.191 137.533 168.202C137.537 168.207 137.535 168.21 137.538 168.214C137.542 168.219 137.545 168.22 137.546 168.223C137.556 168.234 137.566 168.244 137.577 168.257C137.59 168.27 137.602 168.286 137.617 168.295C137.626 168.301 137.632 168.305 137.639 168.311C137.642 168.313 137.643 168.318 137.645 168.317C139.175 169.204 140.894 169.735 142.691 169.931C142.702 169.934 142.711 169.94 142.722 169.94C142.735 169.942 142.75 169.938 142.765 169.937C146.296 170.305 150.122 169.362 153.446 167.154C158.043 164.097 160.073 159.675 159.493 154.009L163.561 151.308C163.708 151.21 163.75 151.007 163.653 150.857C163.576 150.739 163.437 150.689 163.31 150.719C163.274 150.727 163.241 150.743 163.208 150.764L159.143 153.467C155.854 151.605 152.606 151.042 149.44 151.794C147.873 152.167 146.328 152.858 144.807 153.868C139.767 157.219 136.896 162.794 137.491 168.071C137.492 168.076 137.496 168.078 137.494 168.083L137.5 168.108C137.499 168.124 137.508 168.14 137.514 168.157L137.514 168.157ZM138.547 163.212L142.625 164.442L138.086 167.459C137.993 166.042 138.15 164.607 138.547 163.212L138.547 163.212ZM138.442 168.002L142.981 164.985L142.482 169.256C141.054 169.072 139.691 168.65 138.442 168.002L138.442 168.002ZM143.122 169.321L143.683 164.52L148.464 161.341L147.572 168.989C146.078 169.329 144.575 169.44 143.122 169.322L143.122 169.321ZM145.121 154.599L153.595 157.152L148.813 160.331L141.22 158.043C142.26 156.72 143.531 155.526 144.999 154.529C145.031 154.557 145.071 154.585 145.121 154.599L145.121 154.599ZM152.91 166.57C152.904 166.618 152.913 166.666 152.929 166.712C151.438 167.678 149.85 168.385 148.24 168.825L149.169 160.875L153.95 157.696L152.91 166.57ZM153.594 166.256L154.647 157.232L158.883 154.415C159.319 159.508 157.582 163.393 153.594 166.256L153.594 166.256ZM158.532 153.868L154.293 156.683L145.675 154.085C149.855 151.52 154.073 151.445 158.532 153.868L158.532 153.868ZM140.806 158.594C140.807 158.596 140.807 158.596 140.809 158.596L148.111 160.797L143.327 163.977L138.743 162.593C139.211 161.197 139.907 159.846 140.806 158.594L140.806 158.594Z" fill="#6C227E"/>
<path opacity="0.3" d="M245.251 44.6517C245.257 44.666 245.262 44.6858 245.27 44.697C245.273 44.7014 245.271 44.7045 245.275 44.7089C245.279 44.7132 245.282 44.7151 245.282 44.7176C245.293 44.7282 245.303 44.7389 245.314 44.752C245.327 44.7646 245.338 44.7802 245.354 44.7897C245.363 44.7953 245.369 44.7991 245.375 44.8054C245.378 44.8073 245.38 44.8123 245.382 44.8117C246.912 45.699 248.631 46.23 250.428 46.4259C250.439 46.4285 250.448 46.4342 250.458 46.4344C250.472 46.4364 250.486 46.433 250.502 46.432C254.033 46.7994 257.859 45.8566 261.183 43.6489C265.78 40.592 267.81 36.1692 267.23 30.5036L271.298 27.8027C271.445 27.705 271.487 27.5014 271.389 27.3518C271.312 27.234 271.174 27.1831 271.047 27.2133C271.011 27.222 270.978 27.2375 270.944 27.2586L266.88 29.9614C263.59 28.1001 260.343 27.5371 257.177 28.289C255.61 28.6612 254.065 29.3527 252.543 30.363C247.503 33.7135 244.633 39.2887 245.228 44.5657C245.229 44.5707 245.232 44.5726 245.231 44.5781L245.237 44.6029C245.236 44.6189 245.245 44.6351 245.251 44.6518L245.251 44.6517ZM246.284 39.7071L250.362 40.9363L245.823 43.9533C245.73 42.5364 245.887 41.1017 246.284 39.707L246.284 39.7071ZM246.179 44.4969L250.718 41.4799L250.219 45.7508C248.791 45.5667 247.428 45.1448 246.179 44.4969L246.179 44.4969ZM250.858 45.8161L251.42 41.0148L256.201 37.8355L255.309 45.4839C253.814 45.8233 252.312 45.9342 250.858 45.8164L250.858 45.8161ZM252.858 31.0935L261.331 33.6468L256.55 36.8261L248.956 34.5374C249.996 33.2149 251.268 32.0207 252.736 31.0232C252.768 31.0521 252.808 31.0792 252.858 31.0936L252.858 31.0935ZM260.647 43.0643C260.641 43.1129 260.649 43.1606 260.665 43.2065C259.175 44.1728 257.587 44.8797 255.977 45.3197L256.905 37.3698L261.687 34.1905L260.647 43.0643ZM261.331 42.7502L262.384 33.7264L266.62 30.9096C267.056 36.0025 265.318 39.8872 261.33 42.7502L261.331 42.7502ZM266.269 30.3627L262.03 33.1776L253.412 30.5801C257.592 28.0148 261.809 27.9392 266.269 30.3627L266.269 30.3627ZM248.543 35.0885C248.544 35.091 248.544 35.091 248.546 35.0904L255.848 37.2914L251.064 40.4713L246.479 39.0875C246.948 37.6915 247.644 36.341 248.543 35.0886L248.543 35.0885Z" fill="#6C227E"/>
<path opacity="0.3" d="M442.551 54.2266C442.551 54.242 442.548 54.2622 442.551 54.2755C442.553 54.2809 442.55 54.2831 442.552 54.2885C442.554 54.2939 442.556 54.2968 442.555 54.2993C442.561 54.3131 442.566 54.3268 442.571 54.343C442.579 54.3597 442.584 54.3784 442.594 54.3929C442.6 54.4016 442.605 54.4074 442.608 54.4157C442.61 54.4186 442.61 54.4237 442.612 54.4241C443.696 55.8232 445.088 56.9635 446.679 57.8228C446.688 57.8294 446.694 57.8381 446.704 57.8421C446.715 57.8491 446.73 57.8514 446.745 57.8562C449.878 59.5286 453.777 60.0986 457.686 59.3074C463.095 58.2097 466.64 54.8787 468.235 49.412L473.019 48.4444C473.192 48.4094 473.307 48.2366 473.274 48.0613C473.247 47.9232 473.138 47.8239 473.009 47.804C472.971 47.7982 472.936 47.8004 472.896 47.8072L468.115 48.7777C465.768 45.8126 462.971 44.066 459.756 43.5683C458.164 43.322 456.473 43.3796 454.683 43.7416C448.754 44.944 443.997 49.0256 442.562 54.1382C442.561 54.1432 442.563 54.1461 442.56 54.1508L442.556 54.1759C442.549 54.1903 442.551 54.2086 442.551 54.2266L442.551 54.2266ZM445.368 50.0358L448.684 52.7128L443.344 53.7953C443.79 52.4476 444.476 51.178 445.368 50.0358L445.368 50.0358ZM443.469 54.433L448.808 53.3505L446.739 57.1186C445.486 56.4094 444.382 55.5043 443.469 54.433L443.469 54.433ZM447.307 57.4203L449.634 53.1845L455.259 52.0431L451.555 58.7915C450.042 58.542 448.609 58.078 447.307 57.4205L447.307 57.4203ZM454.7 44.537L461.588 50.0984L455.962 51.2397L449.79 46.2553C451.251 45.4226 452.878 44.796 454.613 44.4256C454.632 44.4647 454.659 44.5049 454.7 44.537L454.7 44.537ZM457.41 58.5638C457.386 58.6064 457.376 58.6538 457.373 58.7024C455.629 59.0352 453.892 59.0909 452.235 58.8912L456.087 51.8774L461.713 50.7361L457.41 58.5638ZM458.161 58.5306L462.533 50.5691L467.516 49.5577C466.004 54.4399 462.933 57.3828 458.161 58.5305L458.161 58.5306ZM467.397 48.9187L462.411 49.9272L455.406 44.2704C460.243 43.4707 464.178 44.9917 467.397 48.9188L467.397 48.9187ZM449.199 46.6099C449.199 46.6124 449.199 46.6124 449.202 46.6128L455.137 51.4058L449.508 52.5468L445.783 49.5358C446.742 48.4193 447.895 47.4307 449.199 46.6099L449.199 46.6099Z" fill="#6C227E"/>
<path opacity="0.3" d="M464.978 155.5C464.966 155.51 464.948 155.52 464.94 155.531C464.937 155.536 464.933 155.535 464.93 155.54C464.927 155.544 464.926 155.548 464.924 155.549C464.917 155.562 464.91 155.575 464.9 155.589C464.892 155.606 464.881 155.621 464.876 155.638C464.873 155.649 464.872 155.656 464.867 155.664C464.867 155.667 464.862 155.67 464.863 155.672C464.468 157.398 464.468 159.199 464.811 160.976C464.812 160.987 464.809 160.997 464.812 161.007C464.814 161.02 464.822 161.033 464.827 161.048C465.518 164.534 467.546 167.917 470.634 170.445C474.907 173.941 479.727 174.579 484.963 172.353L488.74 175.448C488.877 175.56 489.083 175.54 489.197 175.402C489.287 175.294 489.295 175.147 489.229 175.034C489.21 175.002 489.185 174.975 489.155 174.949L485.377 171.858C486.183 168.162 485.763 164.889 484.111 162.083C483.294 160.693 482.178 159.419 480.765 158.262C476.081 154.428 469.914 153.327 465.053 155.452C465.048 155.455 465.048 155.458 465.042 155.459L465.02 155.472C465.004 155.475 464.991 155.489 464.977 155.5L464.978 155.5ZM470.001 155.029L470.031 159.293L465.813 155.841C467.138 155.334 468.553 155.061 470.001 155.029L470.001 155.029ZM465.399 156.341L469.617 159.794L465.394 160.576C465.148 159.156 465.149 157.728 465.399 156.341L465.399 156.341ZM465.52 161.207L470.268 160.328L474.712 163.965L467.15 165.367C466.385 164.037 465.836 162.633 465.52 161.207L465.52 161.207ZM480.161 158.778L480.223 167.637L475.779 164.001L475.723 156.061C477.292 156.666 478.807 157.53 480.192 158.64C480.174 158.68 480.16 158.726 480.161 158.778L480.161 158.778ZM471.033 169.76C470.985 169.768 470.942 169.791 470.903 169.82C469.541 168.679 468.398 167.368 467.503 165.957L475.365 164.501L479.809 168.138L471.033 169.76ZM471.535 170.321L480.458 168.667L484.395 171.889C479.663 173.808 475.443 173.292 471.535 170.321L471.535 170.321ZM484.814 171.392L480.877 168.167L480.814 159.157C484.495 162.398 485.811 166.411 484.814 171.392L484.814 171.392ZM475.075 155.829C475.073 155.83 475.073 155.83 475.075 155.832L475.127 163.466L470.682 159.827L470.65 155.034C472.121 155.07 473.615 155.337 475.075 155.828L475.075 155.829Z" fill="#6C227E"/>
<path opacity="0.3" d="M387.072 195.753C387.084 195.762 387.097 195.778 387.109 195.784C387.114 195.786 387.114 195.79 387.119 195.792C387.125 195.794 387.128 195.795 387.13 195.796C387.144 195.801 387.158 195.806 387.174 195.812C387.191 195.817 387.209 195.826 387.226 195.827C387.237 195.828 387.244 195.829 387.253 195.831C387.257 195.831 387.26 195.835 387.262 195.834C389.028 195.911 390.798 195.584 392.481 194.925C392.492 194.922 392.502 194.923 392.512 194.919C392.524 194.914 392.536 194.904 392.549 194.896C395.849 193.585 398.804 190.975 400.729 187.478C403.389 182.637 403.143 177.776 400.009 173.023L402.365 168.744C402.45 168.589 402.393 168.389 402.238 168.301C402.115 168.233 401.969 168.252 401.87 168.337C401.842 168.362 401.82 168.391 401.8 168.425L399.448 172.705C395.671 172.58 392.532 173.587 390.074 175.721C388.858 176.777 387.808 178.107 386.927 179.707C384.009 185.014 384.044 191.286 387.012 195.687C387.015 195.691 387.019 195.691 387.02 195.697L387.037 195.716C387.043 195.731 387.058 195.741 387.072 195.753L387.072 195.753ZM385.7 190.891L389.883 190.09L387.256 194.868C386.518 193.656 385.994 192.311 385.7 190.891L385.7 190.891ZM387.822 195.185L390.45 190.407L391.983 194.424C390.632 194.922 389.229 195.18 387.822 195.185L387.822 195.185ZM392.58 194.185L390.857 189.669L393.625 184.635L396.371 191.827C395.204 192.821 393.923 193.616 392.58 194.185L392.58 194.185ZM387.543 180.209L396.234 178.544L393.467 183.578L385.678 185.07C385.988 183.416 386.563 181.768 387.402 180.203C387.445 180.214 387.493 180.219 387.543 180.209L387.543 180.209ZM399.984 187.208C400 187.254 400.03 187.292 400.066 187.326C399.191 188.873 398.111 190.236 396.887 191.372L394.033 183.895L396.801 178.861L399.984 187.208ZM400.444 186.613L397.204 178.126L399.656 173.666C402.398 177.978 402.654 182.226 400.444 186.613L400.444 186.613ZM399.092 173.344L396.636 177.804L387.797 179.497C390.315 175.286 394.018 173.263 399.092 173.344L399.092 173.344ZM385.567 185.75C385.568 185.752 385.568 185.752 385.57 185.75L393.06 184.316L390.29 189.353L385.587 190.251C385.357 188.797 385.349 187.277 385.566 185.75L385.567 185.75Z" fill="#6C227E"/>
</svg>
